<svg width="257" height="284" viewBox="0 0 257 284" fill="none" xmlns="http://www.w3.org/2000/svg">
<path d="M38.0999 157.988C47.2439 249.428 130.556 248.92 130.556 248.92C222.504 246.38 218.44 148.844 218.44 148.844H250.444C250.444 283.972 130.048 279.908 130.048 279.908C-8.10623e-05 279.908 3.04792 141.224 3.04792 141.224C3.04792 7.72476e-05 130.048 2.54007 130.048 2.54007C256.032 2.54007 250.952 125.476 250.952 125.476H70.6119C50.2919 125.476 37.0839 138.684 38.0999 157.988ZM211.328 79.7561C201.676 58.9281 178.816 33.5281 128.016 33.5281C123.444 33.5281 73.1519 32.5121 48.7679 79.7561C44.7039 87.8841 48.7679 93.4721 57.9119 93.4721H201.676C210.82 93.4721 214.884 87.3761 211.328 79.7561Z" fill="#DD6B41"/>
</svg>
